<svg width="116" height="24" viewBox="0 0 116 24" fill="none" xmlns="http://www.w3.org/2000/svg">
<path d="M19.8274 8.54332H15.843C15.7294 7.88991 15.5199 7.31108 15.2145 6.80682C14.9091 6.29545 14.5291 5.86222 14.0746 5.5071C13.62 5.15199 13.1016 4.88565 12.5192 4.7081C11.9439 4.52344 11.3224 4.43111 10.6548 4.43111C9.46875 4.43111 8.41761 4.7294 7.50142 5.32599C6.58523 5.91548 5.8679 6.78196 5.34943 7.92543C4.83097 9.06179 4.57173 10.4503 4.57173 12.0909C4.57173 13.7599 4.83097 15.1662 5.34943 16.3097C5.875 17.446 6.59233 18.3054 7.50142 18.8878C8.41761 19.4631 9.4652 19.7507 10.6442 19.7507C11.2976 19.7507 11.9084 19.6655 12.4766 19.495C13.0518 19.3175 13.5668 19.0582 14.0213 18.7173C14.483 18.3764 14.87 17.9574 15.1825 17.4602C15.5021 16.9631 15.7223 16.3949 15.843 15.7557L19.8274 15.777C19.6783 16.8139 19.3551 17.7869 18.858 18.696C18.3679 19.6051 17.7251 20.4077 16.9297 21.1037C16.1342 21.7926 15.2038 22.3324 14.1385 22.723C13.0732 23.1065 11.8906 23.2983 10.5909 23.2983C8.6733 23.2983 6.96165 22.8544 5.45597 21.9666C3.95028 21.0788 2.7642 19.7969 1.89773 18.1207C1.03125 16.4446 0.598011 14.4347 0.598011 12.0909C0.598011 9.74006 1.0348 7.73011 1.90838 6.06108C2.78196 4.38494 3.97159 3.10298 5.47727 2.2152C6.98295 1.32741 8.6875 0.883522 10.5909 0.883522C11.8054 0.883522 12.9347 1.05398 13.9787 1.39489C15.0227 1.7358 15.9531 2.23651 16.7699 2.89702C17.5866 3.55043 18.2578 4.35298 18.7834 5.30469C19.3161 6.24929 19.6641 7.32884 19.8274 8.54332ZM27.9853 23.3303C26.9483 23.3303 26.0144 23.1456 25.1834 22.7763C24.3596 22.3999 23.7061 21.8459 23.2232 21.1143C22.7473 20.3828 22.5094 19.4808 22.5094 18.4084C22.5094 17.4851 22.6799 16.7216 23.0208 16.1179C23.3617 15.5142 23.8269 15.0312 24.4164 14.669C25.0059 14.3068 25.6699 14.0334 26.4086 13.8487C27.1543 13.657 27.9249 13.5185 28.7203 13.4332C29.6792 13.3338 30.4569 13.245 31.0534 13.1669C31.65 13.0817 32.0833 12.9538 32.3532 12.7834C32.6301 12.6058 32.7686 12.3324 32.7686 11.9631V11.8991C32.7686 11.0966 32.5307 10.4751 32.0549 10.0348C31.579 9.59446 30.8936 9.37429 29.9988 9.37429C29.0542 9.37429 28.3049 9.58026 27.7509 9.99219C27.204 10.4041 26.8347 10.8906 26.6429 11.4517L23.0421 10.9403C23.3262 9.94602 23.7949 9.11506 24.4483 8.44744C25.1017 7.77273 25.9007 7.26847 26.8453 6.93466C27.79 6.59375 28.834 6.4233 29.9775 6.4233C30.7658 6.4233 31.5506 6.51563 32.3319 6.70028C33.1131 6.88494 33.8269 7.19034 34.4732 7.61648C35.1195 8.03551 35.638 8.60724 36.0286 9.33168C36.4263 10.0561 36.6252 10.9616 36.6252 12.0483V23H32.9178V20.7521H32.79C32.5556 21.2067 32.2253 21.6328 31.7992 22.0305C31.3801 22.4212 30.851 22.7372 30.2118 22.9787C29.5797 23.2131 28.8375 23.3303 27.9853 23.3303ZM28.9867 20.4964C29.7608 20.4964 30.432 20.3437 31.0002 20.0384C31.5684 19.7259 32.0051 19.3139 32.3105 18.8026C32.623 18.2912 32.7793 17.7337 32.7793 17.13V15.2017C32.6586 15.3011 32.4526 15.3935 32.1614 15.4787C31.8773 15.5639 31.5577 15.6385 31.2026 15.7024C30.8475 15.7663 30.4959 15.8232 30.1479 15.8729C29.7999 15.9226 29.498 15.9652 29.2424 16.0007C28.6671 16.0788 28.1522 16.2067 27.6976 16.3842C27.2431 16.5618 26.8844 16.8104 26.6216 17.13C26.3588 17.4425 26.2275 17.8473 26.2275 18.3445C26.2275 19.0547 26.4867 19.5909 27.0051 19.9531C27.5236 20.3153 28.1841 20.4964 28.9867 20.4964ZM44.3596 1.18182V23H40.503V1.18182H44.3596ZM50.701 23.2344C50.0547 23.2344 49.5007 23.0071 49.0391 22.5526C48.5774 22.098 48.3501 21.544 48.3572 20.8906C48.3501 20.2514 48.5774 19.7045 49.0391 19.25C49.5007 18.7955 50.0547 18.5682 50.701 18.5682C51.326 18.5682 51.8693 18.7955 52.331 19.25C52.7997 19.7045 53.0376 20.2514 53.0447 20.8906C53.0376 21.3239 52.924 21.718 52.7038 22.0732C52.4908 22.4283 52.2067 22.7124 51.8516 22.9254C51.5036 23.1314 51.12 23.2344 50.701 23.2344ZM64.1642 23.3196C62.5307 23.3196 61.128 22.9609 59.9561 22.2436C58.7914 21.5263 57.8929 20.5355 57.2608 19.2713C56.6358 18 56.3233 16.5369 56.3233 14.8821C56.3233 13.2202 56.6429 11.7536 57.2821 10.4822C57.9213 9.20383 58.8233 8.20952 59.9881 7.49929C61.16 6.78196 62.5449 6.4233 64.1429 6.4233C65.4711 6.4233 66.6465 6.66832 67.6692 7.15838C68.699 7.64134 69.5194 8.3267 70.1301 9.21449C70.7409 10.0952 71.089 11.125 71.1742 12.304H67.4881C67.339 11.5156 66.9838 10.8587 66.4228 10.3331C65.8688 9.80043 65.1266 9.53409 64.1962 9.53409C63.4078 9.53409 62.7154 9.74716 62.1188 10.1733C61.5222 10.5923 61.057 11.196 60.7232 11.9844C60.3965 12.7727 60.2331 13.7173 60.2331 14.8182C60.2331 15.9332 60.3965 16.892 60.7232 17.6946C61.0499 18.4901 61.508 19.1044 62.0975 19.5376C62.6941 19.9638 63.3936 20.1768 64.1962 20.1768C64.7644 20.1768 65.2722 20.0703 65.7196 19.8572C66.1742 19.6371 66.5542 19.321 66.8596 18.9091C67.165 18.4972 67.3745 17.9964 67.4881 17.407H71.1742C71.0819 18.5646 70.7409 19.5909 70.1515 20.4858C69.562 21.3736 68.7594 22.0696 67.7438 22.5739C66.7282 23.071 65.535 23.3196 64.1642 23.3196ZM81.4787 23.3196C79.8807 23.3196 78.4957 22.968 77.3239 22.2649C76.152 21.5618 75.2429 20.5781 74.5966 19.3139C73.9574 18.0497 73.6378 16.5724 73.6378 14.8821C73.6378 13.1918 73.9574 11.7109 74.5966 10.4396C75.2429 9.16832 76.152 8.18111 77.3239 7.47798C78.4957 6.77486 79.8807 6.4233 81.4787 6.4233C83.0767 6.4233 84.4616 6.77486 85.6335 7.47798C86.8054 8.18111 87.7109 9.16832 88.3501 10.4396C88.9964 11.7109 89.3196 13.1918 89.3196 14.8821C89.3196 16.5724 88.9964 18.0497 88.3501 19.3139C87.7109 20.5781 86.8054 21.5618 85.6335 22.2649C84.4616 22.968 83.0767 23.3196 81.4787 23.3196ZM81.5 20.2301C82.3665 20.2301 83.0909 19.9922 83.6733 19.5163C84.2557 19.0334 84.6889 18.3871 84.973 17.5774C85.2642 16.7678 85.4098 15.8658 85.4098 14.8714C85.4098 13.87 85.2642 12.9645 84.973 12.1548C84.6889 11.3381 84.2557 10.6882 83.6733 10.2053C83.0909 9.7223 82.3665 9.48082 81.5 9.48082C80.6122 9.48082 79.8736 9.7223 79.2841 10.2053C78.7017 10.6882 78.2649 11.3381 77.9737 12.1548C77.6896 12.9645 77.5476 13.87 77.5476 14.8714C77.5476 15.8658 77.6896 16.7678 77.9737 17.5774C78.2649 18.3871 78.7017 19.0334 79.2841 19.5163C79.8736 19.9922 80.6122 20.2301 81.5 20.2301ZM92.5929 23V6.63636H96.2789V9.4169H96.4707C96.8116 8.4794 97.3762 7.74787 98.1646 7.2223C98.9529 6.68963 99.894 6.4233 100.988 6.4233C102.096 6.4233 103.03 6.69318 103.79 7.23295C104.557 7.76562 105.096 8.49361 105.409 9.4169H105.579C105.942 8.50781 106.552 7.78338 107.412 7.24361C108.278 6.69673 109.305 6.4233 110.491 6.4233C111.996 6.4233 113.225 6.89915 114.177 7.85085C115.128 8.80256 115.604 10.1911 115.604 12.0163V23H111.737V12.6129C111.737 11.5973 111.467 10.8551 110.927 10.3864C110.388 9.91051 109.727 9.67258 108.946 9.67258C108.015 9.67258 107.287 9.96378 106.762 10.5462C106.243 11.1214 105.984 11.8707 105.984 12.794V23H102.202V12.4531C102.202 11.608 101.947 10.9332 101.435 10.429C100.931 9.92472 100.27 9.67258 99.4537 9.67258C98.8997 9.67258 98.3954 9.81463 97.9409 10.0987C97.4863 10.3757 97.1241 10.7699 96.8542 11.2812C96.5843 11.7855 96.4494 12.375 96.4494 13.0497V23H92.5929Z" fill="#F8F8F8"/>
</svg>
