<svg width="1440" height="751" viewBox="0 0 1440 751" fill="none" xmlns="http://www.w3.org/2000/svg">
<g opacity="0.3">
<mask id="mask0_4_39238" style="mask-type:alpha" maskUnits="userSpaceOnUse" x="183" y="188" width="1075" height="469">
<path d="M1257.6 413.415C1257.78 415.425 1257.9 417.441 1257.96 419.462L1257.46 419.477C1257.49 420.483 1257.5 421.491 1257.5 422.5C1257.5 423.509 1257.49 424.517 1257.46 425.523L1257.96 425.537C1257.9 427.559 1257.78 429.575 1257.6 431.584L1257.11 431.541C1256.93 433.541 1256.7 435.534 1256.41 437.52L1256.9 437.592C1256.61 439.588 1256.27 441.577 1255.86 443.559L1255.37 443.46C1254.97 445.421 1254.52 447.376 1254.01 449.324L1254.49 449.451C1253.98 451.397 1253.41 453.335 1252.79 455.266L1252.32 455.114C1251.71 457.017 1251.05 458.914 1250.33 460.802L1250.8 460.979C1250.09 462.856 1249.33 464.726 1248.52 466.587L1248.06 466.387C1247.26 468.219 1246.41 470.044 1245.51 471.86L1245.96 472.082C1245.08 473.876 1244.14 475.663 1243.17 477.442L1242.73 477.201C1241.76 478.955 1240.75 480.702 1239.7 482.441L1240.12 482.7C1239.09 484.404 1238.01 486.101 1236.89 487.79L1236.47 487.514C1235.36 489.19 1234.21 490.858 1233.02 492.519L1233.42 492.811C1232.26 494.422 1231.06 496.025 1229.83 497.621L1229.43 497.315C1228.2 498.906 1226.93 500.49 1225.62 502.066L1226.01 502.385C1224.74 503.913 1223.43 505.433 1222.09 506.946L1221.72 506.615C1220.39 508.114 1219.03 509.606 1217.64 511.09L1218 511.433C1216.63 512.892 1215.22 514.345 1213.79 515.789L1213.43 515.436C1212.03 516.846 1210.59 518.249 1209.13 519.645L1209.47 520.007C1208.01 521.405 1206.51 522.796 1204.98 524.18L1204.65 523.809C1203.18 525.134 1201.69 526.452 1200.17 527.763L1200.5 528.141C1198.98 529.454 1197.43 530.761 1195.85 532.06L1195.53 531.674C1193.99 532.948 1192.42 534.216 1190.82 535.476L1191.13 535.868C1189.56 537.101 1187.97 538.328 1186.36 539.547L1186.06 539.148C1184.45 540.365 1182.81 541.576 1181.16 542.779L1181.45 543.184C1179.84 544.354 1178.2 545.517 1176.54 546.673L1176.26 546.263C1174.62 547.406 1172.96 548.543 1171.28 549.672L1171.55 550.087C1169.87 551.219 1168.16 552.343 1166.44 553.461L1166.16 553.041C1164.5 554.117 1162.82 555.186 1161.12 556.249L1161.38 556.673C1159.68 557.735 1157.96 558.791 1156.22 559.84L1155.96 559.412C1154.22 560.458 1152.47 561.498 1150.7 562.531L1150.95 562.963C1149.23 563.961 1147.5 564.953 1145.75 565.939L1145.51 565.503C1143.76 566.488 1141.99 567.466 1140.21 568.438L1140.45 568.877C1138.67 569.849 1136.87 570.814 1135.05 571.774L1134.82 571.331C1133.07 572.257 1131.3 573.177 1129.51 574.09L1129.74 574.536C1127.95 575.45 1126.15 576.359 1124.33 577.261L1124.11 576.813C1122.29 577.715 1120.46 578.61 1118.61 579.499L1118.83 579.95C1117.04 580.813 1115.23 581.669 1113.41 582.52L1113.2 582.067C1111.38 582.915 1109.55 583.757 1107.71 584.593L1107.92 585.048C1106.07 585.885 1104.21 586.715 1102.34 587.54L1102.14 587.082C1100.31 587.888 1098.47 588.688 1096.61 589.482L1096.81 589.942C1094.97 590.729 1093.12 591.51 1091.25 592.285L1091.06 591.824C1089.2 592.598 1087.32 593.367 1085.43 594.13L1085.62 594.594C1083.75 595.349 1081.87 596.099 1079.97 596.843L1079.79 596.378C1077.93 597.107 1076.07 597.83 1074.19 598.547L1074.37 599.014C1072.49 599.732 1070.59 600.445 1068.69 601.151L1068.52 600.683C1066.61 601.389 1064.7 602.089 1062.78 602.784L1062.95 603.254C1061.07 603.932 1059.18 604.603 1057.29 605.27L1057.12 604.798C1055.23 605.462 1053.33 606.12 1051.42 606.773L1051.58 607.246C1049.67 607.9 1047.74 608.548 1045.81 609.19L1045.65 608.715C1043.74 609.351 1041.82 609.981 1039.88 610.605L1040.04 611.081C1038.14 611.695 1036.23 612.304 1034.31 612.907L1034.16 612.43C1032.24 613.033 1030.31 613.631 1028.37 614.223L1028.52 614.701C1026.58 615.293 1024.63 615.88 1022.67 616.462L1022.53 615.983C1020.61 616.553 1018.68 617.118 1016.75 617.678L1016.88 618.158C1014.96 618.714 1013.03 619.265 1011.08 619.811L1010.95 619.329C1009.01 619.875 1007.06 620.414 1005.1 620.949L1005.23 621.431C1003.27 621.966 1001.31 622.496 999.33 623.02L999.202 622.536C997.274 623.048 995.339 623.554 993.395 624.055L993.52 624.539C991.576 625.04 989.624 625.536 987.665 626.027L987.543 625.542C985.585 626.032 983.619 626.517 981.645 626.997L981.763 627.483C979.795 627.961 977.819 628.435 975.836 628.903L975.721 628.416C973.777 628.875 971.826 629.328 969.868 629.777L969.98 630.264C968.021 630.713 966.055 631.156 964.081 631.595L963.973 631.106C962.001 631.545 960.022 631.978 958.036 632.405L958.141 632.894C956.163 633.32 954.179 633.741 952.188 634.157L952.086 633.667C950.129 634.076 948.165 634.479 946.195 634.877L946.294 635.368C944.323 635.766 942.346 636.16 940.362 636.548L940.266 636.057C938.283 636.446 936.294 636.829 934.298 637.207L934.391 637.698C932.404 638.075 930.41 638.446 928.41 638.813L928.32 638.321C926.352 638.681 924.379 639.036 922.4 639.387L922.487 639.879C920.507 640.23 918.52 640.575 916.528 640.916L916.444 640.423C914.453 640.764 912.456 641.099 910.454 641.429L910.535 641.922C908.537 642.252 906.533 642.577 904.523 642.896L904.444 642.402C902.469 642.716 900.488 643.026 898.501 643.33L898.577 643.824C896.589 644.128 894.597 644.428 892.599 644.722L892.526 644.228C890.529 644.522 888.526 644.811 886.519 645.095L886.589 645.59C884.58 645.875 882.567 646.154 880.548 646.429L880.481 645.933C878.497 646.203 876.509 646.467 874.516 646.727L874.581 647.223C872.588 647.482 870.591 647.737 868.588 647.987L868.526 647.491C866.525 647.741 864.519 647.985 862.508 648.225L862.567 648.722C860.555 648.962 858.539 649.197 856.518 649.427L856.461 648.93C854.465 649.157 852.464 649.379 850.459 649.596L850.513 650.093C848.517 650.31 846.516 650.521 844.511 650.728L844.46 650.231C842.455 650.437 840.447 650.639 838.434 650.835L838.482 651.333C836.468 651.53 834.45 651.722 832.428 651.908L832.382 651.411C830.373 651.596 828.361 651.777 826.344 651.953L826.387 652.451C824.388 652.625 822.385 652.794 820.378 652.959L820.338 652.461C818.331 652.625 816.322 652.785 814.308 652.939L814.346 653.438C812.331 653.593 810.313 653.743 808.29 653.888L808.255 653.389C806.234 653.534 804.209 653.674 802.181 653.809L802.214 654.307C800.214 654.441 798.21 654.569 796.202 654.692L796.171 654.193C794.165 654.317 792.154 654.435 790.14 654.549L790.169 655.048C788.154 655.162 786.136 655.271 784.114 655.375L784.089 654.875C782.068 654.979 780.044 655.079 778.016 655.173L778.039 655.672C776.027 655.766 774.011 655.854 771.992 655.938L771.971 655.438C769.965 655.522 767.955 655.6 765.942 655.673L765.96 656.173C763.946 656.247 761.929 656.315 759.909 656.379L759.894 655.88C757.874 655.943 755.852 656.002 753.827 656.056L753.84 656.556C751.816 656.61 749.788 656.659 747.758 656.704L747.747 656.204C745.741 656.248 743.733 656.286 741.721 656.32L741.73 656.82C739.718 656.855 737.703 656.884 735.685 656.908L735.679 656.408C733.662 656.433 731.642 656.452 729.619 656.467L729.623 656.967C727.6 656.982 725.574 656.991 723.545 656.996L723.544 656.496C722.53 656.499 721.515 656.5 720.5 656.5C720.012 656.5 719.524 656.5 719.037 656.499C718.51 656.499 717.983 656.498 717.456 656.496L717.455 656.996C715.426 656.991 713.4 656.982 711.377 656.967L711.381 656.467C709.358 656.452 707.339 656.433 705.322 656.408L705.315 656.908C703.298 656.884 701.283 656.855 699.27 656.82L699.279 656.321C697.268 656.286 695.259 656.248 693.253 656.204L693.242 656.704C691.212 656.659 689.185 656.61 687.16 656.556L687.174 656.056C685.148 656.002 683.126 655.943 681.107 655.88L681.091 656.379C679.071 656.315 677.054 656.247 675.04 656.173L675.058 655.673C673.046 655.6 671.036 655.522 669.029 655.438L669.008 655.938C666.989 655.854 664.974 655.766 662.961 655.672L662.984 655.173C660.957 655.079 658.932 654.979 656.912 654.876L656.886 655.375C654.865 655.271 652.846 655.162 650.832 655.048L650.86 654.549C648.846 654.435 646.836 654.317 644.829 654.193L644.798 654.692C642.791 654.569 640.787 654.441 638.786 654.308L638.82 653.809C636.791 653.674 634.767 653.534 632.746 653.389L632.71 653.888C630.688 653.743 628.669 653.593 626.654 653.438L626.693 652.939C624.679 652.785 622.669 652.625 620.663 652.461L620.622 652.959C618.615 652.795 616.612 652.625 614.613 652.451L614.657 651.953C612.64 651.777 610.627 651.596 608.618 651.411L608.572 651.909C606.55 651.722 604.532 651.53 602.518 651.333L602.567 650.835C600.554 650.639 598.545 650.437 596.541 650.231L596.49 650.728C594.484 650.521 592.483 650.31 590.487 650.094L590.541 649.596C588.536 649.379 586.535 649.157 584.539 648.93L584.483 649.427C582.462 649.197 580.445 648.962 578.433 648.722L578.493 648.225C576.482 647.986 574.475 647.741 572.474 647.491L572.412 647.987C570.41 647.737 568.412 647.483 566.42 647.223L566.484 646.727C564.491 646.467 562.503 646.203 560.52 645.933L560.452 646.429C558.434 646.154 556.42 645.875 554.412 645.59L554.482 645.095C552.474 644.811 550.472 644.522 548.475 644.228L548.402 644.722C546.404 644.428 544.411 644.128 542.424 643.824L542.499 643.33C540.513 643.026 538.532 642.716 536.556 642.402L536.477 642.896C534.468 642.577 532.464 642.252 530.465 641.923L530.546 641.429C528.544 641.099 526.547 640.764 524.556 640.423L524.472 640.916C522.48 640.575 520.494 640.23 518.513 639.879L518.601 639.387C516.621 639.037 514.648 638.681 512.68 638.321L512.59 638.813C510.59 638.446 508.596 638.075 506.609 637.698L506.702 637.207C504.706 636.829 502.717 636.446 500.734 636.058L500.638 636.548C498.654 636.16 496.677 635.766 494.706 635.368L494.805 634.877C492.835 634.479 490.871 634.076 488.914 633.667L488.812 634.157C486.821 633.741 484.837 633.32 482.859 632.894L482.965 632.405C480.978 631.978 478.999 631.545 477.027 631.106L476.919 631.595C474.945 631.156 472.979 630.713 471.02 630.264L471.132 629.777C469.174 629.328 467.223 628.875 465.279 628.416L465.164 628.903C463.181 628.435 461.205 627.961 459.237 627.483L459.355 626.997C457.382 626.517 455.415 626.032 453.457 625.542L453.336 626.027C451.376 625.536 449.424 625.04 447.48 624.539L447.605 624.055C445.662 623.554 443.726 623.048 441.798 622.536L441.67 623.02C439.694 622.496 437.726 621.966 435.767 621.431L435.899 620.949C433.941 620.414 431.992 619.875 430.051 619.329L429.916 619.811C427.974 619.265 426.041 618.714 424.116 618.158L424.255 617.678C422.317 617.118 420.388 616.553 418.468 615.983L418.326 616.462C416.368 615.88 414.42 615.293 412.482 614.701L412.628 614.223C410.69 613.631 408.762 613.033 406.844 612.43L406.694 612.907C404.774 612.304 402.864 611.695 400.963 611.081L401.117 610.605C399.184 609.981 397.26 609.351 395.347 608.715L395.19 609.19C393.256 608.548 391.333 607.9 389.42 607.246L389.582 606.773C387.67 606.12 385.769 605.462 383.879 604.798L383.713 605.27C381.816 604.603 379.929 603.932 378.053 603.254L378.223 602.784C376.299 602.089 374.385 601.389 372.484 600.683L372.31 601.151C370.406 600.445 368.515 599.732 366.634 599.014L366.813 598.547C364.934 597.83 363.067 597.107 361.212 596.378L361.029 596.843C359.134 596.099 357.251 595.349 355.381 594.594L355.569 594.13C353.68 593.367 351.804 592.598 349.941 591.824L349.749 592.285C347.884 591.51 346.032 590.729 344.193 589.942L344.39 589.483C342.533 588.688 340.69 587.888 338.86 587.082L338.658 587.54C336.786 586.715 334.927 585.885 333.082 585.048L333.289 584.593C331.446 583.757 329.617 582.915 327.803 582.067L327.591 582.52C325.77 581.67 323.962 580.813 322.17 579.95L322.387 579.499C320.539 578.61 318.707 577.715 316.89 576.813L316.668 577.261C314.85 576.359 313.047 575.45 311.26 574.536L311.488 574.091C309.703 573.177 307.934 572.257 306.18 571.332L305.947 571.774C304.13 570.815 302.331 569.849 300.549 568.877L300.789 568.438C299.006 567.466 297.241 566.488 295.494 565.503L295.248 565.939C293.499 564.953 291.767 563.961 290.053 562.963L290.304 562.531C288.531 561.498 286.776 560.458 285.041 559.412L284.783 559.841C283.042 558.791 281.321 557.735 279.619 556.673L279.884 556.249C278.181 555.186 276.499 554.117 274.836 553.041L274.564 553.461C272.837 552.343 271.13 551.219 269.445 550.088L269.724 549.673C268.042 548.543 266.382 547.407 264.743 546.264L264.457 546.674C262.799 545.517 261.164 544.354 259.551 543.184L259.845 542.779C258.186 541.576 256.551 540.366 254.941 539.148L254.639 539.547C253.026 538.328 251.438 537.102 249.874 535.869L250.184 535.476C248.585 534.216 247.013 532.948 245.467 531.674L245.149 532.06C243.572 530.761 242.023 529.455 240.502 528.141L240.828 527.763C239.31 526.452 237.818 525.134 236.355 523.809L236.02 524.18C234.491 522.797 232.993 521.406 231.526 520.007L231.871 519.645C230.406 518.25 228.972 516.847 227.57 515.437L227.215 515.789C225.778 514.345 224.373 512.893 223.001 511.433L223.365 511.091C221.969 509.606 220.608 508.114 219.281 506.615L218.906 506.946C217.567 505.434 216.263 503.913 214.995 502.385L215.379 502.066C214.071 500.49 212.8 498.906 211.567 497.315L211.172 497.621C209.936 496.025 208.738 494.422 207.579 492.811L207.985 492.519C206.79 490.858 205.637 489.19 204.525 487.514L204.109 487.79C202.989 486.101 201.911 484.405 200.876 482.7L201.304 482.441C200.248 480.702 199.238 478.955 198.272 477.201L197.834 477.442C196.855 475.663 195.923 473.876 195.037 472.082L195.486 471.861C194.589 470.044 193.742 468.219 192.943 466.388L192.485 466.587C191.673 464.726 190.912 462.857 190.201 460.98L190.669 460.803C189.954 458.914 189.292 457.018 188.682 455.114L188.206 455.267C187.587 453.336 187.022 451.397 186.511 449.451L186.995 449.324C186.484 447.376 186.028 445.422 185.628 443.46L185.138 443.56C184.734 441.578 184.386 439.589 184.095 437.593L184.59 437.521C184.301 435.534 184.069 433.541 183.894 431.541L183.396 431.585C183.22 429.575 183.103 427.56 183.044 425.538L183.544 425.523C183.515 424.517 183.5 423.509 183.5 422.5C183.5 421.491 183.515 420.483 183.544 419.477L183.044 419.463C183.103 417.441 183.22 415.425 183.396 413.416L183.894 413.459C184.069 411.459 184.301 409.466 184.59 407.48L184.095 407.408C184.386 405.412 184.734 403.423 185.138 401.441L185.628 401.54C186.028 399.579 186.484 397.624 186.995 395.676L186.511 395.549C187.022 393.603 187.587 391.665 188.205 389.734L188.682 389.886C189.292 387.983 189.954 386.086 190.669 384.197L190.201 384.021C190.911 382.144 191.673 380.274 192.484 378.413L192.943 378.613C193.741 376.781 194.589 374.956 195.486 373.14L195.037 372.918C195.923 371.124 196.855 369.337 197.834 367.558L198.272 367.799C199.237 366.045 200.248 364.298 201.304 362.559L200.876 362.3C201.911 360.596 202.988 358.899 204.108 357.21L204.525 357.486C205.636 355.81 206.79 354.142 207.984 352.481L207.578 352.189C208.738 350.578 209.935 348.975 211.171 347.379L211.567 347.685C212.799 346.094 214.07 344.51 215.379 342.934L214.994 342.615C216.263 341.087 217.567 339.567 218.906 338.054L219.28 338.385C220.608 336.886 221.969 335.394 223.365 333.91L223 333.567C224.373 332.108 225.777 330.655 227.215 329.211L227.569 329.563C228.972 328.153 230.406 326.751 231.87 325.355L231.526 324.993C232.993 323.595 234.491 322.204 236.019 320.82L236.355 321.191C237.818 319.866 239.309 318.548 240.828 317.237L240.501 316.859C242.023 315.546 243.572 314.239 245.148 312.94L245.466 313.326C247.012 312.052 248.585 310.784 250.183 309.524L249.874 309.132C251.438 307.899 253.026 306.672 254.639 305.453L254.941 305.852C256.551 304.635 258.185 303.424 259.844 302.221L259.551 301.816C261.163 300.646 262.799 299.483 264.457 298.327L264.743 298.737C266.381 297.594 268.042 296.457 269.724 295.328L269.445 294.913C271.13 293.781 272.836 292.657 274.564 291.539L274.836 291.959C276.498 290.883 278.181 289.814 279.884 288.751L279.619 288.327C281.321 287.265 283.042 286.209 284.783 285.16L285.041 285.588C286.776 284.542 288.531 283.502 290.304 282.469L290.053 282.037C291.767 281.039 293.498 280.047 295.248 279.061L295.493 279.497C297.241 278.512 299.006 277.534 300.788 276.562L300.549 276.123C302.331 275.151 304.13 274.186 305.947 273.226L306.18 273.669C307.933 272.743 309.703 271.823 311.488 270.91L311.26 270.464C313.047 269.55 314.849 268.641 316.668 267.739L316.89 268.187C318.707 267.285 320.539 266.39 322.387 265.501L322.17 265.05C323.962 264.187 325.769 263.331 327.591 262.48L327.803 262.933C329.617 262.085 331.446 261.243 333.289 260.407L333.082 259.952C334.927 259.115 336.785 258.285 338.658 257.46L338.86 257.918C340.69 257.112 342.533 256.312 344.39 255.518L344.193 255.058C346.032 254.271 347.884 253.49 349.749 252.715L349.941 253.176C351.804 252.402 353.68 251.633 355.568 250.87L355.381 250.406C357.251 249.651 359.134 248.901 361.029 248.157L361.211 248.622C363.067 247.893 364.934 247.17 366.813 246.453L366.634 245.986C368.515 245.268 370.406 244.555 372.309 243.849L372.484 244.317C374.385 243.611 376.298 242.911 378.223 242.216L378.053 241.746C379.929 241.068 381.816 240.397 383.713 239.73L383.878 240.202C385.769 239.538 387.67 238.88 389.581 238.227L389.42 237.754C391.333 237.1 393.256 236.452 395.189 235.81L395.347 236.285C397.26 235.649 399.183 235.019 401.117 234.395L400.963 233.919C402.864 233.305 404.774 232.696 406.694 232.093L406.844 232.57C408.762 231.967 410.69 231.369 412.628 230.777L412.482 230.299C414.42 229.707 416.368 229.12 418.326 228.538L418.468 229.017C420.388 228.447 422.317 227.882 424.255 227.322L424.116 226.842C426.04 226.286 427.974 225.735 429.916 225.189L430.051 225.671C431.992 225.125 433.941 224.586 435.899 224.051L435.767 223.569C437.726 223.034 439.694 222.504 441.67 221.98L441.798 222.464C443.726 221.952 445.661 221.446 447.605 220.945L447.48 220.461C449.424 219.96 451.376 219.464 453.335 218.973L453.457 219.458C455.415 218.968 457.381 218.483 459.355 218.003L459.237 217.517C461.205 217.039 463.181 216.565 465.164 216.097L465.279 216.584C467.223 216.125 469.174 215.672 471.132 215.223L471.02 214.736C472.979 214.287 474.945 213.844 476.918 213.405L477.027 213.894C478.999 213.455 480.978 213.022 482.964 212.595L482.859 212.106C484.837 211.68 486.821 211.259 488.812 210.843L488.914 211.333C490.871 210.924 492.835 210.521 494.805 210.123L494.706 209.632C496.677 209.234 498.654 208.84 500.638 208.452L500.734 208.943C502.717 208.554 504.706 208.171 506.702 207.793L506.609 207.302C508.596 206.925 510.59 206.554 512.59 206.187L512.68 206.679C514.648 206.319 516.621 205.964 518.6 205.613L518.513 205.121C520.493 204.77 522.48 204.425 524.472 204.084L524.556 204.577C526.547 204.236 528.544 203.901 530.546 203.571L530.465 203.078C532.463 202.748 534.467 202.423 536.477 202.104L536.556 202.598C538.531 202.284 540.512 201.974 542.499 201.67L542.423 201.176C544.411 200.872 546.403 200.572 548.401 200.278L548.474 200.772C550.471 200.478 552.474 200.189 554.481 199.905L554.411 199.41C556.42 199.125 558.433 198.846 560.452 198.571L560.519 199.067C562.503 198.797 564.491 198.533 566.484 198.273L566.419 197.777C568.412 197.518 570.409 197.263 572.412 197.013L572.474 197.509C574.475 197.259 576.481 197.015 578.492 196.775L578.433 196.278C580.445 196.038 582.461 195.803 584.482 195.573L584.539 196.07C586.535 195.843 588.536 195.621 590.54 195.404L590.487 194.907C592.483 194.69 594.484 194.479 596.489 194.272L596.54 194.769C598.545 194.563 600.553 194.361 602.566 194.165L602.518 193.667C604.532 193.47 606.55 193.278 608.572 193.092L608.618 193.589C610.627 193.404 612.639 193.223 614.656 193.047L614.613 192.549C616.612 192.375 618.615 192.206 620.622 192.041L620.662 192.539C622.668 192.375 624.678 192.215 626.692 192.061L626.654 191.562C628.669 191.407 630.687 191.257 632.71 191.112L632.745 191.611C634.766 191.466 636.791 191.326 638.819 191.191L638.786 190.693C640.786 190.559 642.79 190.431 644.798 190.308L644.829 190.807C646.835 190.683 648.846 190.565 650.86 190.451L650.831 189.952C652.846 189.838 654.864 189.729 656.886 189.625L656.911 190.124C658.932 190.021 660.956 189.921 662.984 189.827L662.961 189.328C664.973 189.234 666.989 189.146 669.008 189.062L669.029 189.562C671.035 189.478 673.045 189.4 675.058 189.327L675.04 188.827C677.054 188.753 679.071 188.685 681.091 188.621L681.106 189.12C683.126 189.057 685.148 188.998 687.173 188.944L687.16 188.444C689.184 188.39 691.212 188.341 693.242 188.296L693.253 188.796C695.259 188.752 697.267 188.714 699.279 188.679L699.27 188.18C701.282 188.145 703.297 188.116 705.315 188.092L705.321 188.592C707.338 188.567 709.358 188.548 711.381 188.533L711.377 188.033C713.4 188.018 715.426 188.009 717.455 188.004L717.456 188.504C718.47 188.501 719.485 188.5 720.5 188.5C721.515 188.5 722.53 188.501 723.544 188.504L723.545 188.004C725.573 188.009 727.599 188.018 729.623 188.033L729.619 188.533C731.642 188.548 733.661 188.567 735.678 188.592L735.685 188.092C737.702 188.116 739.717 188.145 741.729 188.18L741.721 188.679C743.732 188.714 745.741 188.752 747.747 188.796L747.757 188.296C749.788 188.341 751.815 188.39 753.84 188.444L753.826 188.944C755.852 188.998 757.874 189.057 759.893 189.12L759.909 188.621C761.929 188.685 763.946 188.753 765.96 188.827L765.941 189.327C767.954 189.4 769.964 189.478 771.971 189.562L771.992 189.062C774.011 189.146 776.026 189.234 778.039 189.328L778.016 189.827C780.043 189.921 782.067 190.021 784.088 190.124L784.114 189.625C786.135 189.729 788.154 189.838 790.168 189.952L790.14 190.451C792.154 190.565 794.164 190.683 796.171 190.807L796.202 190.308C798.209 190.431 800.213 190.559 802.214 190.692L802.18 191.191C804.209 191.326 806.233 191.466 808.254 191.611L808.29 191.112C810.312 191.257 812.331 191.407 814.346 191.562L814.307 192.061C816.321 192.215 818.331 192.375 820.337 192.539L820.378 192.041C822.385 192.205 824.388 192.375 826.387 192.549L826.343 193.047C828.36 193.223 830.373 193.404 832.382 193.589L832.428 193.091C834.45 193.278 836.468 193.47 838.482 193.667L838.433 194.165C840.446 194.361 842.455 194.563 844.459 194.769L844.51 194.272C846.516 194.479 848.516 194.69 850.513 194.907L850.459 195.404C852.464 195.621 854.465 195.843 856.461 196.07L856.517 195.573C858.538 195.803 860.555 196.038 862.567 196.278L862.507 196.775C864.518 197.015 866.525 197.259 868.526 197.509L868.588 197.013C870.59 197.263 872.588 197.517 874.58 197.777L874.516 198.273C876.509 198.533 878.497 198.797 880.48 199.067L880.548 198.571C882.566 198.846 884.58 199.125 886.589 199.41L886.518 199.905C888.526 200.189 890.528 200.478 892.525 200.772L892.598 200.278C894.596 200.572 896.589 200.872 898.576 201.176L898.501 201.67C900.487 201.974 902.468 202.284 904.444 202.598L904.523 202.104C906.532 202.423 908.536 202.748 910.535 203.077L910.453 203.571C912.456 203.901 914.453 204.236 916.444 204.577L916.528 204.084C918.52 204.425 920.506 204.77 922.487 205.121L922.399 205.613C924.379 205.963 926.352 206.319 928.32 206.679L928.41 206.187C930.41 206.554 932.404 206.925 934.391 207.302L934.298 207.793C936.294 208.171 938.283 208.554 940.266 208.942L940.362 208.452C942.346 208.84 944.323 209.234 946.294 209.632L946.195 210.123C948.165 210.521 950.129 210.924 952.086 211.333L952.188 210.843C954.179 211.259 956.163 211.68 958.141 212.106L958.035 212.595C960.022 213.022 962.001 213.455 963.973 213.894L964.081 213.405C966.055 213.844 968.021 214.287 969.98 214.736L969.868 215.223C971.826 215.672 973.777 216.125 975.721 216.584L975.836 216.097C977.819 216.565 979.795 217.039 981.763 217.517L981.645 218.003C983.619 218.483 985.585 218.968 987.543 219.458L987.664 218.973C989.624 219.464 991.576 219.96 993.52 220.461L993.395 220.945C995.338 221.446 997.274 221.952 999.202 222.464L999.33 221.98C1001.31 222.504 1003.27 223.034 1005.23 223.569L1005.1 224.051C1007.06 224.586 1009.01 225.125 1010.95 225.671L1011.08 225.189C1013.03 225.735 1014.96 226.286 1016.88 226.842L1016.75 227.322C1018.68 227.882 1020.61 228.447 1022.53 229.017L1022.67 228.538C1024.63 229.12 1026.58 229.707 1028.52 230.299L1028.37 230.777C1030.31 231.369 1032.24 231.967 1034.16 232.57L1034.31 232.093C1036.23 232.696 1038.14 233.305 1040.04 233.919L1039.88 234.394C1041.82 235.019 1043.74 235.649 1045.65 236.285L1045.81 235.81C1047.74 236.452 1049.67 237.1 1051.58 237.754L1051.42 238.227C1053.33 238.88 1055.23 239.538 1057.12 240.202L1057.29 239.73C1059.18 240.397 1061.07 241.068 1062.95 241.746L1062.78 242.216C1064.7 242.911 1066.61 243.611 1068.52 244.317L1068.69 243.849C1070.59 244.555 1072.49 245.268 1074.37 245.986L1074.19 246.453C1076.07 247.17 1077.93 247.893 1079.79 248.622L1079.97 248.157C1081.87 248.901 1083.75 249.651 1085.62 250.406L1085.43 250.87C1087.32 251.633 1089.2 252.402 1091.06 253.176L1091.25 252.715C1093.12 253.49 1094.97 254.271 1096.81 255.058L1096.61 255.517C1098.47 256.312 1100.31 257.112 1102.14 257.918L1102.34 257.46C1104.21 258.285 1106.07 259.115 1107.92 259.952L1107.71 260.407C1109.55 261.243 1111.38 262.085 1113.2 262.933L1113.41 262.48C1115.23 263.33 1117.04 264.187 1118.83 265.05L1118.61 265.501C1120.46 266.39 1122.29 267.285 1124.11 268.187L1124.33 267.739C1126.15 268.641 1127.95 269.55 1129.74 270.464L1129.51 270.909C1131.3 271.823 1133.07 272.743 1134.82 273.668L1135.05 273.226C1136.87 274.185 1138.67 275.151 1140.45 276.123L1140.21 276.562C1141.99 277.534 1143.76 278.512 1145.51 279.497L1145.75 279.061C1147.5 280.047 1149.23 281.039 1150.95 282.037L1150.7 282.469C1152.47 283.502 1154.22 284.542 1155.96 285.588L1156.22 285.159C1157.96 286.209 1159.68 287.265 1161.38 288.327L1161.12 288.751C1162.82 289.814 1164.5 290.883 1166.16 291.959L1166.44 291.539C1168.16 292.657 1169.87 293.781 1171.55 294.912L1171.28 295.327C1172.96 296.457 1174.62 297.593 1176.26 298.736L1176.54 298.326C1178.2 299.483 1179.84 300.646 1181.45 301.816L1181.16 302.221C1182.81 303.424 1184.45 304.634 1186.06 305.852L1186.36 305.453C1187.97 306.672 1189.56 307.898 1191.13 309.131L1190.82 309.524C1192.41 310.784 1193.99 312.052 1195.53 313.326L1195.85 312.94C1197.43 314.239 1198.98 315.545 1200.5 316.859L1200.17 317.237C1201.69 318.548 1203.18 319.866 1204.64 321.191L1204.98 320.82C1206.51 322.203 1208.01 323.594 1209.47 324.993L1209.13 325.355C1210.59 326.75 1212.03 328.153 1213.43 329.563L1213.78 329.211C1215.22 330.655 1216.63 332.107 1218 333.567L1217.64 333.909C1219.03 335.394 1220.39 336.886 1221.72 338.385L1222.09 338.054C1223.43 339.566 1224.74 341.087 1226.01 342.615L1225.62 342.934C1226.93 344.51 1228.2 346.094 1229.43 347.685L1229.83 347.379C1231.06 348.975 1232.26 350.578 1233.42 352.189L1233.02 352.481C1234.21 354.142 1235.36 355.81 1236.47 357.486L1236.89 357.21C1238.01 358.899 1239.09 360.595 1240.12 362.3L1239.7 362.559C1240.75 364.298 1241.76 366.045 1242.73 367.799L1243.17 367.558C1244.14 369.337 1245.08 371.124 1245.96 372.918L1245.51 373.139C1246.41 374.956 1247.26 376.781 1248.06 378.612L1248.52 378.413C1249.33 380.274 1250.09 382.143 1250.8 384.02L1250.33 384.197C1251.05 386.086 1251.71 387.982 1252.32 389.886L1252.79 389.733C1253.41 391.664 1253.98 393.603 1254.49 395.549L1254.01 395.676C1254.52 397.624 1254.97 399.578 1255.37 401.54L1255.86 401.44C1256.27 403.422 1256.61 405.411 1256.9 407.407L1256.41 407.479C1256.7 409.466 1256.93 411.459 1257.11 413.459L1257.6 413.415Z" fill="#D9D9D9" stroke="#727272" stroke-dasharray="6 6"/>
</mask>
<g mask="url(#mask0_4_39238)">
<line x1="1212.5" y1="900" x2="1212.5" y2="-73" stroke="#727272" stroke-dasharray="6 6"/>
<line x1="1165.5" y1="900" x2="1165.5" y2="-73" stroke="#727272" stroke-dasharray="6 6"/>
<line x1="1118.5" y1="900" x2="1118.5" y2="-73" stroke="#727272" stroke-dasharray="6 6"/>
<line x1="1071.5" y1="900" x2="1071.5" y2="-73" stroke="#727272" stroke-dasharray="6 6"/>
<line x1="1024.5" y1="900" x2="1024.5" y2="-73" stroke="#727272" stroke-dasharray="6 6"/>
<line x1="977.499" y1="900" x2="977.499" y2="-73" stroke="#727272" stroke-dasharray="6 6"/>
<line x1="930.499" y1="900" x2="930.499" y2="-73" stroke="#727272" stroke-dasharray="6 6"/>
<line x1="883.499" y1="900" x2="883.499" y2="-73" stroke="#727272" stroke-dasharray="6 6"/>
<line x1="836.499" y1="900" x2="836.499" y2="-73" stroke="#727272" stroke-dasharray="6 6"/>
<line x1="789.499" y1="900" x2="789.499" y2="-73" stroke="#727272" stroke-dasharray="6 6"/>
<line x1="742.499" y1="900" x2="742.499" y2="-73" stroke="#727272" stroke-dasharray="6 6"/>
<line x1="695.499" y1="900" x2="695.499" y2="-73" stroke="#727272" stroke-dasharray="6 6"/>
<line x1="648.499" y1="900" x2="648.499" y2="-73" stroke="#727272" stroke-dasharray="6 6"/>
<line x1="601.499" y1="900" x2="601.499" y2="-73" stroke="#727272" stroke-dasharray="6 6"/>
<line x1="554.499" y1="900" x2="554.499" y2="-73" stroke="#727272" stroke-dasharray="6 6"/>
<line x1="507.499" y1="900" x2="507.499" y2="-73" stroke="#727272" stroke-dasharray="6 6"/>
<line x1="460.499" y1="900" x2="460.499" y2="-73" stroke="#727272" stroke-dasharray="6 6"/>
<line x1="413.499" y1="900" x2="413.499" y2="-73" stroke="#727272" stroke-dasharray="6 6"/>
<line x1="366.499" y1="900" x2="366.499" y2="-73" stroke="#727272" stroke-dasharray="6 6"/>
<line x1="319.499" y1="900" x2="319.499" y2="-73" stroke="#727272" stroke-dasharray="6 6"/>
<line x1="272.499" y1="900" x2="272.499" y2="-73" stroke="#727272" stroke-dasharray="6 6"/>
<line x1="225.499" y1="900" x2="225.499" y2="-73" stroke="#727272" stroke-dasharray="6 6"/>
<line x1="-1.00049" y1="656.5" x2="1440" y2="656.5" stroke="#727272" stroke-dasharray="6 6"/>
<line x1="-1.00049" y1="609.499" x2="1440" y2="609.499" stroke="#727272" stroke-dasharray="6 6"/>
<line x1="-1.00049" y1="562.499" x2="1440" y2="562.499" stroke="#727272" stroke-dasharray="6 6"/>
<line x1="-1.00049" y1="515.499" x2="1440" y2="515.499" stroke="#727272" stroke-dasharray="6 6"/>
<line x1="-1.00049" y1="468.499" x2="1440" y2="468.499" stroke="#727272" stroke-dasharray="6 6"/>
<line x1="-1.00049" y1="421.499" x2="1440" y2="421.499" stroke="#727272" stroke-dasharray="6 6"/>
<line x1="-1.00049" y1="374.499" x2="1440" y2="374.499" stroke="#727272" stroke-dasharray="6 6"/>
<line x1="-1.00049" y1="327.499" x2="1440" y2="327.499" stroke="#727272" stroke-dasharray="6 6"/>
<line x1="-1.00049" y1="280.499" x2="1440" y2="280.499" stroke="#727272" stroke-dasharray="6 6"/>
<line x1="-1.00049" y1="233.499" x2="1440" y2="233.499" stroke="#727272" stroke-dasharray="6 6"/>
</g>
</g>
</svg>
